<svg width="169" height="204" viewBox="0 0 169 204" fill="none" xmlns="http://www.w3.org/2000/svg">
<path d="M166.286 59.1428H2L23.4286 202H144.857L166.286 59.1428Z" stroke="white" stroke-width="4" stroke-linecap="round" stroke-linejoin="round"/>
<path d="M155.572 37.7139C155.599 32.2611 154.057 26.9155 151.131 22.3145C148.204 17.7135 144.016 14.0512 139.066 11.7643C134.116 9.47746 128.613 8.66249 123.212 9.4166C117.812 10.1707 112.742 12.4621 108.608 16.0175C106.106 11.7504 102.533 8.21164 98.241 5.75267C93.9494 3.2937 89.0893 2 84.1432 2C79.1971 2 74.337 3.2937 70.0454 5.75267C65.7539 8.21164 62.1801 11.7504 59.6789 16.0175C55.5446 12.4621 50.4749 10.1707 45.0744 9.4166C39.6739 8.66249 34.1705 9.47746 29.2203 11.7643C24.2701 14.0512 20.0821 17.7135 17.1555 22.3145C14.229 26.9155 12.6874 32.2611 12.7146 37.7139" stroke="white" stroke-width="4" stroke-linecap="round" stroke-linejoin="round"/>
</svg>
