<svg width="337" height="529" viewBox="0 0 337 529" fill="none" xmlns="http://www.w3.org/2000/svg">
<path d="M171.504 54.6075L159.206 512.136L81.1652 526.818L41.9082 493.19L45.219 48.9239L127.517 42.7667L171.504 54.6075Z" fill="#FBC02D"/>
<path d="M88.2598 61.2384L171.504 54.6075M88.2598 61.2384L81.1652 526.818M88.2598 61.2384L45.219 48.9239M171.504 54.6075L159.206 512.136L81.1652 526.818M171.504 54.6075L127.517 42.7667L45.219 48.9239M81.1652 526.818L41.9082 493.19L45.219 48.9239M158.733 135.599L99.1383 140.335L99.2725 130.862M158.733 135.599L160.152 68.3428L137.922 70.2709M158.733 135.599L136.503 126.6M137.922 70.2709L100.084 73.5528L99.2725 130.862M137.922 70.2709L136.503 126.6M136.503 126.6L99.2725 130.862" stroke="#212121" stroke-width="4" stroke-linecap="round"/>
<path d="M261.19 178.37C255.907 182.433 255.612 187.811 258.615 191.243L268.091 201.113L285.222 218.958C285.222 221.02 286.08 224.715 285.222 227.29C285.027 227.874 284.939 228.521 284.364 229.137C288.655 230.555 288.763 236.779 288.226 239.734C287.367 244.455 281.36 246.171 277.068 247.459C273.792 248.442 264.761 247.173 256.47 246.327C253.903 246.065 251.407 245.844 249.175 245.742C241.623 245.399 239.449 239.591 239.306 236.731V228.735C234.5 226.641 232.985 222.83 232.869 220.853V208.838C224.973 205.405 229.187 192.531 232.28 186.523L177.512 164.209L204.547 103.702L296.808 142.753L287.046 166.783L280.072 183.948L274.494 178.37C272.777 176.653 266.769 174.079 261.19 178.37Z" fill="white"/>
<path d="M289.512 223.428L285.222 218.958M298.954 202.83L280.072 183.948M280.072 183.948L274.494 178.37C272.777 176.653 266.769 174.079 261.19 178.37C255.907 182.433 255.612 187.811 258.615 191.243L268.091 201.113M280.072 183.948L287.046 166.783M268.091 201.113L232.28 186.523M268.091 201.113L285.222 218.958M287.046 166.783L296.808 142.753L204.547 103.702L177.512 164.209L232.28 186.523M287.046 166.783C292.588 169.501 304.275 175.28 306.678 176.653C309.682 178.37 316.548 182.232 319.552 209.696C322.556 237.16 325.559 261.191 327.705 270.202M232.28 186.523C229.187 192.531 224.973 205.405 232.869 208.838M232.869 208.838C240.765 212.271 255.04 217.42 261.19 219.566C264.337 220.71 271.404 222.57 274.494 220.853C277.583 219.137 280.358 216.705 281.36 215.704M232.869 208.838V220.853C232.985 222.83 234.5 226.641 239.306 228.735M285.222 218.958C285.222 221.02 286.08 224.715 285.222 227.29C285.027 227.874 284.939 228.521 284.364 229.137M239.306 228.735C240.411 229.217 241.691 229.608 243.168 229.865C253.037 231.581 267.199 235.872 274.494 233.727C279.695 232.197 282.933 230.667 284.364 229.137M239.306 228.735V236.731C239.449 239.591 241.623 245.399 249.175 245.742C251.407 245.844 253.903 246.065 256.47 246.327M284.364 229.137C288.655 230.555 288.763 236.779 288.226 239.734C287.367 244.455 281.36 246.171 277.068 247.459C273.792 248.442 264.761 247.173 256.47 246.327M256.47 246.327C256.757 249.565 259.217 256.299 266.769 257.329C276.21 258.616 280.931 257.758 283.076 259.045" stroke="#212121" stroke-width="4" stroke-linecap="round"/>
<path d="M42.7668 2L46.6289 30.3222M32.0387 56.9278L2 62.5064M35.0425 38.9046L7.57861 23.8853M298.524 128.162L304.532 105.419M310.111 150.477L335 154.339M307.536 138.461L329.851 124.3" stroke="#212121" stroke-width="4" stroke-linecap="round"/>
</svg>
