<svg width="980" height="633" viewBox="0 0 980 633" fill="none" xmlns="http://www.w3.org/2000/svg">
<path d="M602 142.5L425.5 42V397L365 433L479 499.5L602 430V142.5Z" fill="white"/>
<path d="M2 616.5L4.5 259.5L406 28L425.5 42.5V396.5L276.5 482.5C276.667 485.167 277.2 492.3 278 499.5C278.8 506.7 282.667 515.167 284.5 518.5L325 542.5V560.5L225.5 616L175 586.5V576C175 572 176 562.5 179 557C181.4 552.6 181 542.5 180.5 538L23 628L2 616.5Z" fill="#B65099"/>
<path d="M409 91.5L41.5 303V571.5L409 358.5V91.5Z" fill="white"/>
<path d="M191 530.5C191 530.5 191 545 190 553C189 561 185 574.5 185 574.5M185 574.5L225 598.5M185 574.5L283.5 517.5M225 598.5L324.5 542M225 598.5V616.5M324.5 542L283.5 517.5M324.5 542V559L225 616.5M283.5 517.5C281 510.667 276.3 493.9 277.5 481.5M181 537.5C180.833 542 180.2 552 179 556C177.8 560 175.833 567.333 175 570.5V586.5L225 616.5M23 629L425.5 396.5V40M23 629V272.5M23 629L3 616.5V260.5M425.5 40L23 272.5M425.5 40L405 27L3 260.5M23 272.5L3 260.5M41.5 570.5L409.5 357V90.5L41.5 302.5V570.5Z" stroke="#2D242A" stroke-width="6"/>
<path d="M425.5 182L478.5 211.5M478.5 211.5L602 142M478.5 211.5V498M602 142L425.5 41.5M602 142V430.5L478.5 498M478.5 498L366 434M498 241.5V258.5L584 208V193.5L498 241.5ZM501 305V323.5L588 274.5V256.5L501 305ZM541.5 385C538 385 535.128 387.744 533.5 391C531 396 532.836 399.891 534.5 401C536 402 540.5 401 542.5 397C544.919 392.163 547 388 541.5 385ZM565 345.5C560.5 350.167 551.6 363 552 377C552.5 394.5 568.246 391.877 573 389.5C582 385 594.5 368.5 594 353C593.5 337.5 587 336.4 583 336C578 335.5 569.5 339.834 565 345.5Z" stroke="#2D242A" stroke-width="6"/>
<path d="M767.409 18.2328L753.317 5.90238C752.024 4.77086 750 5.68922 750 7.40754V210.772C750 228.021 759.409 271.928 815.86 271.928C861.648 271.928 873.618 231.157 873.879 210.772V184.899H889.56V7.08928C889.56 5.42498 887.646 4.4888 886.332 5.51057L869.752 18.4061C868.97 19.0145 867.86 18.9584 867.143 18.2742L852.555 4.34921C851.769 3.59904 850.528 3.61347 849.76 4.38171L836.091 18.0507C835.31 18.8318 834.044 18.8318 833.263 18.0507L819.626 4.41421C818.845 3.63316 817.579 3.63316 816.798 4.41421L803.161 18.0507C802.38 18.8318 801.114 18.8318 800.333 18.0507L786.696 4.41421C785.915 3.63317 784.649 3.63316 783.868 4.41421L770.14 18.1419C769.396 18.8864 768.201 18.9262 767.409 18.2328Z" fill="white"/>
<path d="M889.56 184.899V7.08928C889.56 5.42498 887.646 4.4888 886.332 5.51057L869.752 18.4061C868.97 19.0145 867.86 18.9584 867.143 18.2742L852.555 4.34921C851.769 3.59904 850.528 3.61347 849.76 4.38171L836.091 18.0507C835.31 18.8318 834.044 18.8318 833.263 18.0507L819.626 4.41421C818.845 3.63316 817.579 3.63316 816.798 4.41421L803.161 18.0507C802.38 18.8318 801.114 18.8318 800.333 18.0507L786.696 4.41421C785.915 3.63317 784.649 3.63316 783.868 4.41421L770.14 18.1419C769.396 18.8864 768.201 18.9262 767.409 18.2328L753.317 5.90238C752.024 4.77086 750 5.68922 750 7.40754V210.772C750 228.021 759.409 271.928 815.86 271.928C861.648 271.928 873.618 231.157 873.879 210.772V184.899H976.589V216.26C976.589 236.646 958.556 271.928 920.922 271.928C883.288 271.928 845.131 271.928 821.348 271.928M771.169 131.583H866.039M771.169 155.889H866.039M771.169 177.842H826.836M765.262 108.076L770.546 102.793M765.262 102.793L770.546 108.076M777.883 108.076L780.525 105.435M780.525 105.435L783.167 102.793M780.525 105.435L777.883 102.793M780.525 105.435L783.167 108.076M790.504 108.076L793.146 105.435M793.146 105.435L795.787 102.793M793.146 105.435L790.504 102.793M793.146 105.435L795.787 108.076M803.419 108.076L806.06 105.435M806.06 105.435L808.702 102.793M806.06 105.435L803.419 102.793M806.06 105.435L808.702 108.076M816.333 108.076L818.975 105.435M818.975 105.435L821.616 102.793M818.975 105.435L816.333 102.793M818.975 105.435L821.616 108.076M829.247 108.076L831.889 105.435M831.889 105.435L834.531 102.793M831.889 105.435L829.247 102.793M831.889 105.435L834.531 108.076M842.162 108.076L844.803 105.435M844.803 105.435L847.445 102.793M844.803 105.435L842.162 102.793M844.803 105.435L847.445 108.076M855.076 108.076L857.718 105.435M857.718 105.435L860.359 102.793M857.718 105.435L855.076 102.793M857.718 105.435L860.359 108.076M867.697 108.076L870.339 105.435M870.339 105.435L872.98 102.793M870.339 105.435L867.697 102.793M870.339 105.435L872.98 108.076" stroke="#2D242A" stroke-width="6" stroke-linecap="round"/>
</svg>
