<svg width="595" height="250" viewBox="0 0 595 250" fill="none" xmlns="http://www.w3.org/2000/svg">
<g clip-path="url(#clip0_3_2)">
<path d="M280.156 250.001C304.461 250.001 324.165 244.206 324.165 237.057C324.165 229.908 304.461 224.113 280.156 224.113C255.851 224.113 236.147 229.908 236.147 237.057C236.147 244.206 255.851 250.001 280.156 250.001Z" fill="#2D242A"/>
<path d="M415.512 250.001C439.817 250.001 459.521 244.206 459.521 237.057C459.521 229.908 439.817 224.113 415.512 224.113C391.207 224.113 371.503 229.908 371.503 237.057C371.503 244.206 391.207 250.001 415.512 250.001Z" fill="#2D242A"/>
<path d="M550.867 250.001C575.173 250.001 594.876 244.206 594.876 237.057C594.876 229.908 575.173 224.113 550.867 224.113C526.562 224.113 506.858 229.908 506.858 237.057C506.858 244.206 526.562 250.001 550.867 250.001Z" fill="#2D242A"/>
<path d="M144.802 250.001C169.107 250.001 188.811 244.206 188.811 237.057C188.811 229.908 169.107 224.113 144.802 224.113C120.497 224.113 100.793 229.908 100.793 237.057C100.793 244.206 120.497 250.001 144.802 250.001Z" fill="#2D242A"/>
<path d="M5.0089 250.001C29.3143 250.001 49.0178 244.206 49.0178 237.057C49.0178 229.908 29.3143 224.113 5.0089 224.113C-19.2965 224.113 -39 229.908 -39 237.057C-39 244.206 -19.2965 250.001 5.0089 250.001Z" fill="#2D242A"/>
<path d="M271.318 239.646H257.05C255.946 239.646 255.05 238.751 255.05 237.646V146.438L223.552 113.281C222.267 111.928 222.088 109.867 223.12 108.312L245.768 74.2149C245.928 73.9745 246.137 73.7715 246.383 73.6199L266.895 60.9508C267.211 60.7557 267.574 60.6523 267.946 60.6523H293.909C294.294 60.6523 294.67 60.7633 294.993 60.9718L317.108 75.241C317.372 75.4111 317.592 75.6409 317.75 75.9119L338.143 110.783C339.06 112.351 338.806 114.34 337.524 115.626L306.826 146.438V237.646C306.826 238.751 305.93 239.646 304.826 239.646H289.736C288.708 239.646 287.847 238.866 287.746 237.843L280.527 164.584L273.308 237.843C273.207 238.866 272.347 239.646 271.318 239.646Z" fill="white"/>
<path d="M306.826 123.342V91.1721L318.315 109.623C318.806 110.411 318.69 111.434 318.034 112.092L306.826 123.342ZM306.826 123.342V146.438V123.342ZM306.826 146.438V237.646C306.826 238.751 305.93 239.646 304.826 239.646H289.736C288.708 239.646 287.847 238.866 287.746 237.843L280.527 164.584L273.308 237.843C273.207 238.866 272.347 239.646 271.318 239.646H257.05C255.946 239.646 255.05 238.751 255.05 237.646V146.438H306.826ZM306.826 146.438L337.524 115.626C338.806 114.34 339.06 112.351 338.143 110.783L317.75 75.9119C317.592 75.6409 317.372 75.4111 317.108 75.241L294.993 60.9718C294.67 60.7633 294.294 60.6523 293.909 60.6523H267.946C267.574 60.6523 267.211 60.7557 266.895 60.9508L246.383 73.6199C246.137 73.7715 245.928 73.9745 245.768 74.2149L223.12 108.312C222.088 109.867 222.267 111.928 223.552 113.281L255.05 146.438H306.826ZM255.05 146.438V123.342V146.438ZM255.05 123.342V91.1721L243.561 109.623C243.07 110.411 243.186 111.434 243.842 112.092L255.05 123.342Z" stroke="#2D242A" stroke-width="6"/>
<path d="M255.379 150.887H305.675" stroke="#2D242A" stroke-width="6"/>
<path d="M255.379 138.312H305.675" stroke="#2D242A" stroke-width="6"/>
<path d="M300.456 25.5178C300.456 38.2639 291.239 48.0355 280.527 48.0355C269.814 48.0355 260.598 38.2639 260.598 25.5178C260.598 12.7716 269.814 3 280.527 3C291.239 3 300.456 12.7716 300.456 25.5178Z" fill="white" stroke="#2D242A" stroke-width="6"/>
</g>
<defs>
<clipPath id="clip0_3_2">
<rect width="634" height="250" fill="white" transform="translate(-39)"/>
</clipPath>
</defs>
</svg>
