<svg width="634" height="250" viewBox="0 0 634 250" fill="none" xmlns="http://www.w3.org/2000/svg">
<ellipse cx="319.157" cy="237.056" rx="44.0089" ry="12.9438" fill="white"/>
<ellipse cx="454.512" cy="237.056" rx="44.0089" ry="12.9438" fill="white"/>
<ellipse cx="589.867" cy="237.056" rx="44.0089" ry="12.9438" fill="white"/>
<ellipse cx="183.802" cy="237.056" rx="44.0089" ry="12.9438" fill="white"/>
<ellipse cx="44.0089" cy="237.056" rx="44.0089" ry="12.9438" fill="white"/>
<path d="M310.318 239.645H296.05C294.945 239.645 294.05 238.75 294.05 237.645V146.436L262.551 113.279C261.266 111.926 261.087 109.865 262.119 108.311L284.768 74.2134C284.927 73.9731 285.137 73.7701 285.383 73.6184L305.894 60.9493C306.21 60.7542 306.574 60.6509 306.945 60.6509H332.908C333.293 60.6509 333.67 60.7618 333.993 60.9703L356.108 75.2395C356.371 75.4097 356.591 75.6395 356.75 75.9104L377.143 110.782C378.06 112.35 377.805 114.338 376.524 115.624L345.825 146.436V237.645C345.825 238.75 344.93 239.645 343.825 239.645H328.736C327.707 239.645 326.846 238.865 326.745 237.841L319.527 164.583L312.308 237.841C312.207 238.865 311.346 239.645 310.318 239.645Z" fill="#2D242A"/>
<path d="M345.825 123.34V91.1706L357.315 109.621C357.805 110.41 357.689 111.432 357.034 112.09L345.825 123.34ZM345.825 123.34V146.436M345.825 146.436V237.645C345.825 238.75 344.93 239.645 343.825 239.645H328.736C327.707 239.645 326.846 238.865 326.745 237.841L319.527 164.583L312.308 237.841C312.207 238.865 311.346 239.645 310.318 239.645H296.05C294.945 239.645 294.05 238.75 294.05 237.645V146.436M345.825 146.436L376.524 115.624C377.805 114.338 378.06 112.35 377.143 110.782L356.75 75.9104C356.591 75.6395 356.371 75.4097 356.108 75.2395L333.993 60.9703C333.67 60.7618 333.293 60.6509 332.908 60.6509H306.945C306.574 60.6509 306.21 60.7542 305.894 60.9493L285.383 73.6184C285.137 73.7701 284.927 73.9731 284.768 74.2134L262.119 108.311C261.087 109.865 261.266 111.926 262.551 113.279L294.05 146.436M294.05 146.436V123.34M294.05 123.34V91.1706L282.561 109.621C282.07 110.41 282.186 111.432 282.841 112.09L294.05 123.34Z" stroke="white" stroke-width="6"/>
<path d="M294.379 150.888H344.675" stroke="white" stroke-width="6"/>
<path d="M294.379 138.314H344.675" stroke="white" stroke-width="6"/>
<path d="M339.456 25.5178C339.456 38.2639 330.239 48.0355 319.527 48.0355C308.814 48.0355 299.598 38.2639 299.598 25.5178C299.598 12.7716 308.814 3 319.527 3C330.239 3 339.456 12.7716 339.456 25.5178Z" fill="#2D242A" stroke="white" stroke-width="6"/>
</svg>
