<svg width="843" height="688" viewBox="0 0 843 688" fill="none" xmlns="http://www.w3.org/2000/svg">
<path d="M161 157.5L11 228.5L26.5 403L75 424.5H193.5L225 525L433 618.5L777.5 659V618.5L828 579L839 570L842.5 335L161 157.5Z" fill="#9FCDD9"/>
<path d="M645.5 288L633 292.5L653.5 53L372 6L387 1.5L663 49.5L645.5 288Z" fill="#9FCDD9"/>
<path d="M469 352.5L412.5 441.5L729 471L763.5 378.5L469 352.5Z" fill="white"/>
<path d="M258 290.5L127 350L302 415L435.5 347L258 290.5Z" fill="white"/>
<path d="M87.5 321.5L74.5 254.5L217 222.5L242.5 284L87.5 321.5Z" fill="white"/>
<path d="M365.5 217.5L373.5 8L654.5 51.5L631 290.5L365.5 217.5Z" fill="white"/>
<path d="M86.5 608.5L21.5 628.5L3 422.5H72.5L177.5 468L189 662.5L127.5 683.5L111.5 480.5L75.5 465.5L86.5 608.5Z" fill="#FDC20B"/>
<path d="M337 441.5V460.5M337 441.5L458 347.5M337 441.5L804 487.5M337 441.5L77 343M337 460.5L429.5 468.611M337 460.5L220 414.875M804 487.5V505.5L783 503.431M804 487.5L783 373.5M783 373.5L839.5 334.5M783 373.5L458 347.5M783 373.5L229 217.5M839.5 334.5V570.5L778.553 618M839.5 334.5L645.814 283.725M9 227.5L160.5 156.5L281 188.089M9 227.5L24 403L72.5 422.971M9 227.5L60 246.5M75 424H192.5M75 424L60 246.5M75 424L72.5 422.971M192.5 424L225.5 525M192.5 424V404.151M225.5 525L433.5 618M225.5 525L220 414.875M433.5 618L777 658L778.553 618M433.5 618L429.5 468.611M783 503.431L429.5 468.611M783 503.431L778.553 618M458 347.5L259.5 283M60 246.5L229 217.5M60 246.5L77 343M229 217.5L281 188.089M229 217.5L259.5 283M281 188.089L366.231 210M259.5 283L77 343M77 343L78 359.5L192.5 404.151M192.5 404.151L220 414.875M110.5 471L3.5 424M110.5 471L127 683.5L190.5 661.5L179 467M110.5 471L179 467M3.5 424L4.35941 433.5M3.5 424L72.5 422.971M75 465.5L86.5 608.5L22 628.5L4.35941 433.5M110.5 480L4.35941 433.5M179 467L72.5 422.971M372.5 6.5L366 217.5L633 291M372.5 6.5L653.5 49.5M372.5 6.5L385.5 4L663 49.5M633 291L653.5 49.5M633 291L645.5 288L645.814 283.725M653.5 49.5H663M663 49.5L645.814 283.725M411.5 441.5L729 470.5L763.5 378.5L468 352.5L411.5 441.5ZM301.5 414.875L437 347.5L257 291L127 350.5L301.5 414.875ZM75 254.5L88 322.5L244.5 283L217 223L75 254.5Z" stroke="#2D242A" stroke-width="6"/>
</svg>
