<svg width="164" height="221" viewBox="0 0 164 221" fill="none" xmlns="http://www.w3.org/2000/svg">
<path d="M41 134V113H61.5V134H41Z" stroke="#F6F5F1" stroke-width="8" stroke-linecap="round" stroke-linejoin="round"/>
<path d="M104 134V113H125V134H104Z" stroke="#F6F5F1" stroke-width="8" stroke-linecap="round" stroke-linejoin="round"/>
<path d="M42 63.5V50H63.5" stroke="#F6F5F1" stroke-width="8" stroke-linecap="round" stroke-linejoin="round"/>
<path d="M78.5 48V64M105 50.5V70.5H124.5V50.5H105Z" stroke="#F6F5F1" stroke-width="8" stroke-linecap="round" stroke-linejoin="round"/>
<path d="M39 96.5H51V87H60.5V68.5H70.5M76 87.5H87V98H115.5M125 98H115.5M115.5 98V85M87 111.5V123.5M87 135.5V123.5M87 123.5H75.5" stroke="#F6F5F1" stroke-width="8" stroke-linecap="round" stroke-linejoin="round"/>
<rect x="38" y="74" width="8" height="8" fill="#F6F5F1"/>
<rect x="65" y="101" width="8" height="8" fill="#F6F5F1"/>
<rect x="83" y="65" width="8" height="8" fill="#F6F5F1"/>
<rect x="93" y="74" width="8" height="8" fill="#F6F5F1"/>
<rect x="4" y="4" width="156" height="213" stroke="#F6F5F1" stroke-width="8"/>
<path d="M35.1363 165.296V161.48H41.7843V179H37.5123V165.296H35.1363Z" fill="#F6F5F1"/>
<path d="M60.5805 175.712C61.1245 175.28 61.3725 175.08 61.3245 175.112C62.8925 173.816 64.1245 172.752 65.0205 171.92C65.9325 171.088 66.7005 170.216 67.3245 169.304C67.9485 168.392 68.2605 167.504 68.2605 166.64C68.2605 165.984 68.1085 165.472 67.8045 165.104C67.5005 164.736 67.0445 164.552 66.4365 164.552C65.8285 164.552 65.3485 164.784 64.9965 165.248C64.6605 165.696 64.4925 166.336 64.4925 167.168H60.5325C60.5645 165.808 60.8525 164.672 61.3965 163.76C61.9565 162.848 62.6845 162.176 63.5805 161.744C64.4925 161.312 65.5005 161.096 66.6045 161.096C68.5085 161.096 69.9405 161.584 70.9005 162.56C71.8765 163.536 72.3645 164.808 72.3645 166.376C72.3645 168.088 71.7805 169.68 70.6125 171.152C69.4445 172.608 67.9565 174.032 66.1485 175.424H72.6285V178.76H60.5805V175.712Z" fill="#F6F5F1"/>
<path d="M92.4584 166.424C92.5224 164.712 93.0824 163.392 94.1384 162.464C95.1944 161.536 96.6264 161.072 98.4344 161.072C99.6344 161.072 100.658 161.28 101.506 161.696C102.37 162.112 103.018 162.68 103.45 163.4C103.898 164.12 104.122 164.928 104.122 165.824C104.122 166.88 103.858 167.744 103.33 168.416C102.802 169.072 102.186 169.52 101.482 169.76V169.856C102.394 170.16 103.114 170.664 103.642 171.368C104.17 172.072 104.434 172.976 104.434 174.08C104.434 175.072 104.202 175.952 103.738 176.72C103.29 177.472 102.626 178.064 101.746 178.496C100.882 178.928 99.8504 179.144 98.6504 179.144C96.7304 179.144 95.1944 178.672 94.0424 177.728C92.9064 176.784 92.3064 175.36 92.2424 173.456H96.2264C96.2424 174.16 96.4424 174.72 96.8264 175.136C97.2104 175.536 97.7704 175.736 98.5064 175.736C99.1304 175.736 99.6104 175.56 99.9464 175.208C100.298 174.84 100.474 174.36 100.474 173.768C100.474 173 100.226 172.448 99.7304 172.112C99.2504 171.76 98.4744 171.584 97.4024 171.584H96.6344V168.248H97.4024C98.2184 168.248 98.8744 168.112 99.3704 167.84C99.8824 167.552 100.138 167.048 100.138 166.328C100.138 165.752 99.9784 165.304 99.6584 164.984C99.3384 164.664 98.8984 164.504 98.3384 164.504C97.7304 164.504 97.2744 164.688 96.9704 165.056C96.6824 165.424 96.5144 165.88 96.4664 166.424H92.4584Z" fill="#F6F5F1"/>
<path d="M119.055 175.88V172.568L126.639 161.72H131.223V172.328H133.191V175.88H131.223V179H127.119V175.88H119.055ZM127.407 166.232L123.375 172.328H127.407V166.232Z" fill="#F6F5F1"/>
</svg>
