<svg width="144" height="194" viewBox="0 0 144 194" fill="none" xmlns="http://www.w3.org/2000/svg">
<path fill-rule="evenodd" clip-rule="evenodd" d="M32.6572 99.2065C32.6572 97.5497 34.0004 96.2065 35.6572 96.2065H53.7511C55.408 96.2065 56.7511 97.5497 56.7511 99.2065V117.742C56.7511 119.399 55.408 120.742 53.7511 120.742H35.6572C34.0004 120.742 32.6572 119.399 32.6572 117.742V99.2065ZM38.6572 102.207V114.742H50.7511V102.207H38.6572ZM88.2629 99.2065C88.2629 97.5497 89.606 96.2065 91.2629 96.2065H109.798C111.455 96.2065 112.798 97.5497 112.798 99.2065V117.742C112.798 119.399 111.455 120.742 109.798 120.742H91.2629C89.606 120.742 88.2629 119.399 88.2629 117.742V99.2065ZM94.2629 102.207V114.742H106.798V102.207H94.2629Z" fill="#2D242A"/>
<path fill-rule="evenodd" clip-rule="evenodd" d="M33.54 43.601C33.54 41.9441 34.8832 40.601 36.54 40.601H55.5166C57.1734 40.601 58.5166 41.9441 58.5166 43.601C58.5166 45.2578 57.1734 46.601 55.5166 46.601H39.54V55.5164C39.54 57.1733 38.1969 58.5164 36.54 58.5164C34.8832 58.5164 33.54 57.1733 33.54 55.5164V43.601Z" fill="#2D242A"/>
<path fill-rule="evenodd" clip-rule="evenodd" d="M68.7559 38.8357C70.4127 38.8357 71.7559 40.1788 71.7559 41.8357V55.9578C71.7559 57.6146 70.4127 58.9578 68.7559 58.9578C67.099 58.9578 65.7559 57.6146 65.7559 55.9578V41.8357C65.7559 40.1788 67.099 38.8357 68.7559 38.8357ZM89.1455 44.0423C89.1455 42.3854 90.4887 41.0423 92.1455 41.0423H109.357C111.014 41.0423 112.357 42.3854 112.357 44.0423V61.6948C112.357 63.3517 111.014 64.6948 109.357 64.6948H92.1455C90.4887 64.6948 89.1455 63.3517 89.1455 61.6948V44.0423ZM95.1455 47.0423V58.6948H106.357V47.0423H95.1455Z" fill="#2D242A"/>
<path fill-rule="evenodd" clip-rule="evenodd" d="M49.8686 59.9296C49.8686 58.2727 51.2118 56.9296 52.8686 56.9296H61.6949C63.3518 56.9296 64.6949 58.2727 64.6949 59.9296C64.6949 61.5864 63.3518 62.9296 61.6949 62.9296H55.8686V76.2582C55.8686 77.9151 54.5255 79.2582 52.8686 79.2582H47.4836V84.6432C47.4836 86.3 46.1405 87.6432 44.4836 87.6432H33.8921C32.2352 87.6432 30.8921 86.3 30.8921 84.6432C30.8921 82.9863 32.2352 81.6432 33.8921 81.6432H41.4836V76.2582C41.4836 74.6013 42.8268 73.2582 44.4836 73.2582H49.8686V59.9296ZM101.413 71.4929C103.07 71.4929 104.413 72.8361 104.413 74.4929V82.9671H109.798C111.455 82.9671 112.798 84.3103 112.798 85.9671C112.798 87.624 111.455 88.9671 109.798 88.9671H76.2583C74.6014 88.9671 73.2583 87.624 73.2583 85.9671V79.6995H66.5494C64.8925 79.6995 63.5494 78.3564 63.5494 76.6995C63.5494 75.0427 64.8925 73.6995 66.5494 73.6995H76.2583C77.9151 73.6995 79.2583 75.0427 79.2583 76.6995V82.9671H98.4132V74.4929C98.4132 72.8361 99.7564 71.4929 101.413 71.4929ZM76.2583 94.8826C77.9151 94.8826 79.2583 96.2258 79.2583 97.8826V119.066C79.2583 120.723 77.9151 122.066 76.2583 122.066C74.6014 122.066 73.2583 120.723 73.2583 119.066V111.474H66.1081C64.4512 111.474 63.1081 110.131 63.1081 108.474C63.1081 106.817 64.4512 105.474 66.1081 105.474H73.2583V97.8826C73.2583 96.2258 74.6014 94.8826 76.2583 94.8826Z" fill="#2D242A"/>
<path d="M33.0093 64.7841H40.0703V71.8451H33.0093V64.7841Z" fill="#2D242A"/>
<path d="M56.8403 88.615H63.9014V95.676H56.8403V88.615Z" fill="#2D242A"/>
<path d="M72.7275 56.8403H79.7886V63.9014H72.7275V56.8403Z" fill="#2D242A"/>
<path d="M81.5542 64.7841H88.6152V71.8451H81.5542V64.7841Z" fill="#2D242A"/>
<path fill-rule="evenodd" clip-rule="evenodd" d="M0 0H144V194H0V0ZM6 6V188H138V6H6Z" fill="#2D242A"/>
<path d="M29.9867 148.872V145.032H36.8507V162H32.5307V148.872H29.9867Z" fill="black"/>
<path d="M52.0191 158.736C57.1071 155.104 59.6511 152.216 59.6511 150.072C59.6511 148.76 59.0831 148.104 57.9471 148.104C57.3071 148.104 56.8351 148.328 56.5311 148.776C56.2431 149.224 56.0831 149.92 56.0511 150.864H52.0431C52.1391 148.8 52.7631 147.248 53.9151 146.208C55.0671 145.168 56.5231 144.648 58.2831 144.648C60.1231 144.648 61.5071 145.112 62.4351 146.04C63.3791 146.968 63.8511 148.176 63.8511 149.664C63.8511 151.312 63.2191 152.928 61.9551 154.512C60.6911 156.08 59.1791 157.408 57.4191 158.496H64.1151V161.808H52.0191V158.736Z" fill="black"/>
<path d="M85.9824 144.288C87.1664 144.288 88.1824 144.496 89.0304 144.912C89.8784 145.312 90.5184 145.872 90.9504 146.592C91.3984 147.296 91.6224 148.096 91.6224 148.992C91.6224 150.096 91.3344 150.984 90.7584 151.656C90.1984 152.328 89.4944 152.752 88.6464 152.928V153.048C90.8384 153.752 91.9344 155.12 91.9344 157.152C91.9344 158.128 91.7104 159 91.2624 159.768C90.8144 160.52 90.1584 161.112 89.2944 161.544C88.4464 161.96 87.4224 162.168 86.2224 162.168C84.2704 162.168 82.7184 161.688 81.5664 160.728C80.4304 159.768 79.8144 158.304 79.7184 156.336H83.7264C83.7584 157.088 83.9664 157.68 84.3504 158.112C84.7344 158.544 85.2944 158.76 86.0304 158.76C86.6224 158.76 87.0864 158.584 87.4224 158.232C87.7744 157.88 87.9504 157.424 87.9504 156.864C87.9504 155.472 86.9424 154.776 84.9264 154.776H84.1584V151.44H84.9024C86.7104 151.472 87.6144 150.824 87.6144 149.496C87.6144 148.92 87.4544 148.48 87.1344 148.176C86.8304 147.856 86.4144 147.696 85.8864 147.696C85.3104 147.696 84.8544 147.896 84.5184 148.296C84.1824 148.68 83.9904 149.2 83.9424 149.856H79.9344C80.0144 148.064 80.5744 146.688 81.6144 145.728C82.6544 144.768 84.1104 144.288 85.9824 144.288Z" fill="black"/>
<path d="M103.494 158.88V155.448L111.246 144.816H115.661V155.304H117.702V158.88H115.661V162H111.51V158.88H103.494ZM111.846 149.568L107.67 155.304H111.846V149.568Z" fill="black"/>
<path fill-rule="evenodd" clip-rule="evenodd" d="M23.3005 84.2019C24.6073 84.2019 25.7483 83.4919 26.3587 82.4366H118.214C118.825 83.4919 119.966 84.2019 121.272 84.2019C123.222 84.2019 124.803 82.6212 124.803 80.6714C124.803 78.7215 123.222 77.1409 121.272 77.1409C119.966 77.1409 118.825 77.8509 118.214 78.9061H26.3587C25.7483 77.8509 24.6073 77.1409 23.3005 77.1409C21.3507 77.1409 19.77 78.7215 19.77 80.6714C19.77 82.6212 21.3507 84.2019 23.3005 84.2019Z" fill="#FA1C1C"/>
<path fill-rule="evenodd" clip-rule="evenodd" d="M34.7744 33.892V30.3615H24.1829L20.6523 30.3615L20.6523 33.892L20.6523 44.4835H24.1829V33.892L34.7744 33.892Z" fill="#FA1C1C"/>
<path fill-rule="evenodd" clip-rule="evenodd" d="M120.389 33.892L120.389 44.4835L123.92 44.4835L123.92 30.3615L123.92 30.3615L123.92 30.3615L109.798 30.3614L109.798 33.892L120.389 33.892Z" fill="#FA1C1C"/>
<path fill-rule="evenodd" clip-rule="evenodd" d="M120.389 126.568L109.798 126.568L109.798 130.099L123.92 130.099L123.92 126.568L123.92 115.977L120.389 115.977L120.389 126.568Z" fill="#FA1C1C"/>
<path fill-rule="evenodd" clip-rule="evenodd" d="M24.1829 126.568L24.1829 115.977L20.6523 115.977L20.6523 130.099L24.1829 130.099L34.7744 130.099L34.7744 126.568L24.1829 126.568Z" fill="#FA1C1C"/>
</svg>
