<svg width="178" height="171" viewBox="0 0 178 171" fill="none" xmlns="http://www.w3.org/2000/svg">
<path d="M3 31.5C3 47.9 31.6667 55.6667 46 57.5V128.5C31.6667 125.833 3 117.4 3 105C3 92.6 3 50.8333 3 31.5ZM3 31.5C3 11 56.5 3 88.5 3C120.5 3 174 12.5 174 31.5M174 31.5C174 46.7 146 55.1667 132 57.5V128.5C140 126.667 155.5 123 161 119.5C167.04 115.657 174 111 174 102.5C174 96.5 174.333 52.6667 174 31.5Z" stroke="#2D242A" stroke-width="6"/>
<path d="M45.5 78.5C53.8333 76.3333 74.2 72.1 89 72.5C103.8 72.9 124.167 76.6666 132.5 78.5" stroke="#2D242A" stroke-width="6"/>
<path d="M82.688 167.5H75.5C74.3954 167.5 73.5 166.605 73.5 165.5V111L55.2085 91.8162C53.9174 90.4621 53.7374 88.3939 54.7752 86.8371L67.7571 67.3644C67.9171 67.1243 68.1272 66.9217 68.373 66.7705L80.5179 59.2967C80.8331 59.1027 81.196 59 81.5661 59H96.9126C97.2961 59 97.6715 59.1103 97.9941 59.3176L111.098 67.7418C111.362 67.9116 111.583 68.1411 111.742 68.4118L123.435 88.3333C124.357 89.9038 124.101 91.8988 122.814 93.1865L105 111V165.5C105 166.605 104.105 167.5 103 167.5H95.312C94.2836 167.5 93.4229 166.72 93.3217 165.697L89 122L84.6783 165.697C84.5771 166.72 83.7164 167.5 82.688 167.5Z" fill="#F0EDE6"/>
<path d="M105 97V77.5L111.657 88.1508C112.15 88.9406 112.034 89.9665 111.375 90.625L105 97ZM105 97V111M105 111V165.5C105 166.605 104.105 167.5 103 167.5H95.312C94.2836 167.5 93.4229 166.72 93.3217 165.697L89 122L84.6783 165.697C84.5771 166.72 83.7164 167.5 82.688 167.5H75.5C74.3954 167.5 73.5 166.605 73.5 165.5V111M105 111L122.814 93.1865C124.101 91.8988 124.357 89.9038 123.435 88.3333L111.742 68.4118C111.583 68.1411 111.362 67.9116 111.098 67.7418L97.9941 59.3176C97.6715 59.1103 97.2961 59 96.9126 59H81.5661C81.196 59 80.8331 59.1027 80.5179 59.2967L68.373 66.7705C68.1272 66.9217 67.9171 67.1243 67.7571 67.3644L54.7752 86.8371C53.7374 88.3939 53.9174 90.4621 55.2085 91.8162L73.5 111M73.5 111V97M73.5 97V77.5L66.8432 88.1508C66.3496 88.9406 66.4665 89.9665 67.125 90.625L73.5 97Z" stroke="#2D242A" stroke-width="6"/>
<path d="M73.5 113.5H104.5" stroke="#2D242A" stroke-width="6"/>
<path d="M73.5 106H104.5" stroke="#2D242A" stroke-width="6"/>
<path d="M100 37.5C100 44.6981 94.7952 50 89 50C83.2048 50 78 44.6981 78 37.5C78 30.3019 83.2048 25 89 25C94.7952 25 100 30.3019 100 37.5Z" stroke="#2D242A" stroke-width="6"/>
</svg>
